<svg xmlns="http://www.w3.org/2000/svg" viewBox="0 0 1000 1016"><path d="M330.6,0.0 L367.3,43.3 L363.9,73.4 L377.5,92.2 L376.4,111.1 L351.8,106.1 L361.4,146.8 L395.0,170.2 L442.6,196.0 L420.9,212.7 L407.6,247.2 L440.7,261.2 L473.0,279.3 L517.6,300.0 L564.5,304.8 L584.2,323.6 L610.7,327.1 L651.8,335.7 L680.3,335.1 L684.3,320.5 L679.8,297.0 L682.4,281.1 L703.3,273.3 L706.1,302.4 L706.9,309.8 L738.0,323.8 L759.5,318.0 L788.4,320.5 L816.3,319.4 L818.7,296.8 L804.8,285.0 L832.4,280.4 L863.5,252.9 L902.9,229.4 L931.6,238.5 L956.0,222.9 L972.1,245.9 L960.5,261.4 L997.4,266.9 L1000.0,280.9 L988.0,287.7 L990.8,310.4 L966.4,303.7 L922.1,329.2 L923.1,350.3 L904.2,381.3 L902.5,399.2 L887.2,429.7 L860.5,421.3 L859.2,459.5 L851.4,472.0 L855.0,487.7 L838.2,496.5 L820.1,437.9 L810.7,438.0 L805.1,461.6 L786.4,442.5 L796.9,421.5 L812.2,419.4 L828.0,388.1 L808.3,381.8 L776.6,382.4 L744.0,377.3 L741.0,351.6 L724.6,349.8 L697.5,333.9 L685.5,358.9 L710.2,378.5 L688.8,392.2 L681.2,405.7 L702.2,415.5 L696.4,437.8 L708.3,465.5 L713.6,495.9 L708.7,509.4 L685.4,508.9 L643.2,516.6 L645.2,544.4 L626.9,566.2 L577.7,591.0 L539.4,634.4 L513.7,657.7 L479.6,681.9 L479.5,698.9 L462.5,707.9 L431.6,721.2 L415.7,723.1 L405.4,751.3 L412.5,799.3 L414.3,829.9 L399.8,864.9 L399.7,927.6 L382.0,929.4 L366.4,957.6 L376.8,969.7 L345.6,980.2 L334.1,1005.3 L320.4,1015.9 L288.0,981.4 L272.1,929.8 L259.0,892.5 L247.0,875.1 L228.8,839.6 L220.4,793.5 L214.4,770.4 L183.3,719.7 L169.1,648.2 L158.9,601.0 L159.0,556.3 L152.4,521.7 L102.6,543.8 L78.5,539.4 L33.8,494.7 L50.2,481.3 L40.1,466.9 L0.0,435.5 L22.8,410.9 L98.1,411.0 L91.3,379.3 L72.1,360.6 L68.2,332.2 L45.8,315.6 L83.5,277.0 L123.2,279.8 L159.0,241.1 L180.5,203.6 L213.7,166.6 L213.1,140.3 L242.3,118.9 L214.7,100.7 L202.8,75.7 L190.7,43.4 L207.5,27.5 L259.4,36.5 L297.5,31.0 L330.6,0.0 Z" fill="#F6EFDE" stroke="#7A5C3E" stroke-width="2.5" stroke-linejoin="round"/></svg>