<svg xmlns="http://www.w3.org/2000/svg" viewBox="0 0 861 473" preserveAspectRatio="xMidYMid meet"><path d="M4.0,377.0 L7.0,383.0 L7.0,385.0 L15.0,391.0 L22.0,390.0 L29.0,386.0 L31.0,386.0 L38.0,383.0 L41.0,383.0 L44.0,385.0 L46.0,385.0 L56.0,389.0 L83.0,388.0 L84.0,387.0 L93.0,387.0 L94.0,386.0 L104.0,386.0 L105.0,385.0 L110.0,385.0 L114.0,387.0 L122.0,388.0 L141.0,399.0 L152.0,401.0 L172.0,428.0 L172.0,431.0 L168.0,436.0 L168.0,456.0 L163.0,460.0 L165.0,468.0 L166.0,467.0 L169.0,467.0 L170.0,466.0 L180.0,464.0 L186.0,472.0 L188.0,469.0 L190.0,469.0 L191.0,470.0 L196.0,470.0 L197.0,471.0 L202.0,471.0 L204.0,472.0 L210.0,466.0 L215.0,466.0 L223.0,469.0 L232.0,462.0 L241.0,462.0 L255.0,455.0 L259.0,452.0 L263.0,453.0 L269.0,458.0 L269.0,467.0 L304.0,448.0 L300.0,446.0 L295.0,441.0 L295.0,438.0 L297.0,436.0 L296.0,397.0 L297.0,396.0 L297.0,389.0 L299.0,386.0 L301.0,378.0 L306.0,373.0 L330.0,355.0 L341.0,350.0 L343.0,350.0 L346.0,348.0 L348.0,348.0 L358.0,344.0 L360.0,342.0 L362.0,338.0 L362.0,336.0 L364.0,334.0 L421.0,337.0 L434.0,348.0 L439.0,349.0 L440.0,350.0 L444.0,350.0 L446.0,352.0 L449.0,358.0 L449.0,360.0 L454.0,369.0 L476.0,379.0 L488.0,378.0 L491.0,381.0 L495.0,389.0 L503.0,386.0 L506.0,386.0 L518.0,394.0 L522.0,385.0 L527.0,385.0 L528.0,386.0 L533.0,387.0 L536.0,389.0 L537.0,391.0 L537.0,395.0 L545.0,398.0 L552.0,399.0 L558.0,406.0 L567.0,398.0 L573.0,398.0 L577.0,394.0 L584.0,390.0 L589.0,389.0 L594.0,392.0 L596.0,392.0 L597.0,390.0 L597.0,382.0 L598.0,381.0 L598.0,379.0 L600.0,375.0 L604.0,372.0 L612.0,372.0 L627.0,378.0 L628.0,377.0 L633.0,376.0 L636.0,374.0 L644.0,372.0 L647.0,370.0 L652.0,369.0 L655.0,367.0 L666.0,364.0 L674.0,371.0 L674.0,373.0 L675.0,374.0 L675.0,379.0 L687.0,394.0 L695.0,391.0 L699.0,391.0 L700.0,392.0 L708.0,394.0 L711.0,398.0 L713.0,405.0 L722.0,412.0 L727.0,402.0 L727.0,400.0 L734.0,395.0 L733.0,394.0 L733.0,383.0 L741.0,375.0 L742.0,368.0 L744.0,365.0 L759.0,355.0 L770.0,355.0 L784.0,334.0 L792.0,324.0 L796.0,324.0 L799.0,326.0 L806.0,328.0 L817.0,313.0 L831.0,311.0 L831.0,305.0 L833.0,303.0 L838.0,301.0 L838.0,299.0 L841.0,292.0 L841.0,289.0 L845.0,279.0 L845.0,276.0 L837.0,266.0 L837.0,263.0 L840.0,260.0 L844.0,260.0 L856.0,272.0 L857.0,257.0 L860.0,251.0 L860.0,246.0 L859.0,244.0 L858.0,244.0 L852.0,249.0 L848.0,249.0 L845.0,245.0 L839.0,248.0 L835.0,248.0 L821.0,241.0 L816.0,237.0 L815.0,225.0 L804.0,223.0 L796.0,217.0 L780.0,217.0 L779.0,216.0 L773.0,215.0 L769.0,213.0 L766.0,213.0 L762.0,211.0 L747.0,211.0 L745.0,207.0 L745.0,204.0 L743.0,200.0 L742.0,194.0 L701.0,151.0 L696.0,149.0 L694.0,147.0 L687.0,144.0 L685.0,142.0 L678.0,139.0 L674.0,136.0 L651.0,137.0 L641.0,129.0 L637.0,127.0 L622.0,128.0 L613.0,140.0 L608.0,140.0 L607.0,145.0 L605.0,148.0 L605.0,150.0 L599.0,163.0 L600.0,164.0 L600.0,175.0 L599.0,176.0 L599.0,182.0 L602.0,188.0 L607.0,194.0 L609.0,199.0 L612.0,203.0 L612.0,213.0 L611.0,215.0 L601.0,224.0 L597.0,224.0 L596.0,223.0 L596.0,219.0 L601.0,212.0 L601.0,208.0 L596.0,200.0 L596.0,198.0 L591.0,189.0 L591.0,187.0 L586.0,178.0 L586.0,171.0 L585.0,170.0 L585.0,154.0 L586.0,153.0 L586.0,146.0 L587.0,145.0 L588.0,140.0 L591.0,135.0 L591.0,133.0 L596.0,123.0 L607.0,111.0 L609.0,106.0 L609.0,103.0 L605.0,97.0 L605.0,95.0 L603.0,92.0 L601.0,85.0 L598.0,80.0 L598.0,78.0 L594.0,71.0 L594.0,69.0 L591.0,63.0 L582.0,51.0 L576.0,51.0 L573.0,53.0 L557.0,68.0 L549.0,68.0 L544.0,72.0 L536.0,72.0 L521.0,85.0 L493.0,85.0 L485.0,91.0 L483.0,91.0 L477.0,94.0 L469.0,96.0 L466.0,98.0 L455.0,101.0 L449.0,104.0 L444.0,104.0 L441.0,101.0 L435.0,88.0 L426.0,84.0 L424.0,82.0 L424.0,80.0 L421.0,74.0 L411.0,74.0 L405.0,62.0 L398.0,62.0 L397.0,61.0 L390.0,61.0 L389.0,60.0 L381.0,60.0 L380.0,59.0 L378.0,59.0 L374.0,56.0 L367.0,53.0 L365.0,51.0 L348.0,42.0 L346.0,40.0 L346.0,36.0 L350.0,30.0 L345.0,17.0 L345.0,14.0 L344.0,13.0 L343.0,8.0 L330.0,1.0 L315.0,1.0 L314.0,0.0 L312.0,0.0 L290.0,10.0 L273.0,43.0 L271.0,45.0 L263.0,47.0 L263.0,54.0 L251.0,65.0 L248.0,67.0 L246.0,67.0 L242.0,69.0 L234.0,69.0 L233.0,68.0 L225.0,67.0 L225.0,68.0 L214.0,80.0 L214.0,93.0 L213.0,94.0 L213.0,96.0 L195.0,111.0 L180.0,117.0 L177.0,117.0 L167.0,121.0 L164.0,121.0 L163.0,122.0 L161.0,122.0 L157.0,124.0 L154.0,124.0 L144.0,128.0 L141.0,128.0 L131.0,132.0 L128.0,132.0 L118.0,136.0 L115.0,136.0 L105.0,140.0 L102.0,140.0 L101.0,141.0 L99.0,141.0 L95.0,143.0 L92.0,143.0 L82.0,147.0 L79.0,147.0 L69.0,151.0 L66.0,151.0 L56.0,155.0 L53.0,155.0 L47.0,161.0 L39.0,165.0 L29.0,175.0 L20.0,191.0 L18.0,201.0 L17.0,202.0 L16.0,213.0 L15.0,214.0 L15.0,220.0 L14.0,221.0 L14.0,231.0 L13.0,232.0 L13.0,248.0 L12.0,249.0 L12.0,254.0 L13.0,255.0 L13.0,257.0 L12.0,258.0 L12.0,262.0 L5.0,281.0 L5.0,284.0 L4.0,285.0 L4.0,288.0 L2.0,293.0 L2.0,298.0 L1.0,299.0 L1.0,307.0 L0.0,308.0 L1.0,324.0 L3.0,328.0 L3.0,331.0 L5.0,335.0 L6.0,343.0 L7.0,344.0 L7.0,347.0 L9.0,352.0 L9.0,360.0 L8.0,361.0 L8.0,364.0 L7.0,365.0 L6.0,370.0 L4.0,373.0 Z" fill="#F6EFDE" stroke="#7A5C3E" stroke-width="2.2" stroke-linejoin="round" fill-rule="evenodd"/></svg>