<svg xmlns="http://www.w3.org/2000/svg" viewBox="0 0 1600 900"><path d="M0,0 H1600 V900 H0 Z M86.7,685.0 L91.7,695.0 L91.7,698.4 L105.1,708.4 L116.8,706.7 L128.5,700.0 L131.8,700.0 L143.6,695.0 L148.6,695.0 L153.6,698.4 L156.9,698.4 L173.7,705.1 L218.8,703.4 L220.5,701.7 L235.5,701.7 L237.2,700.0 L253.9,700.0 L255.6,698.4 L264.0,698.4 L270.7,701.7 L284.0,703.4 L315.8,721.8 L334.2,725.1 L367.7,770.3 L367.7,775.3 L361.0,783.7 L361.0,817.1 L352.6,823.8 L356.0,837.2 L357.6,835.5 L362.6,835.5 L364.3,833.8 L381.0,830.5 L391.1,843.9 L394.4,838.9 L397.8,838.9 L399.4,840.5 L407.8,840.5 L409.5,842.2 L417.8,842.2 L421.2,843.9 L431.2,833.8 L439.6,833.8 L453.0,838.9 L468.0,827.1 L483.1,827.1 L506.5,815.4 L513.2,810.4 L519.9,812.1 L529.9,820.5 L529.9,835.5 L588.4,803.7 L581.7,800.4 L573.4,792.0 L573.4,787.0 L576.7,783.7 L575.1,718.4 L576.7,716.8 L576.7,705.1 L580.1,700.0 L583.4,686.7 L591.8,678.3 L631.9,648.2 L650.3,639.8 L653.7,639.8 L658.7,636.5 L662.0,636.5 L678.7,629.8 L682.1,626.4 L685.4,619.8 L685.4,616.4 L688.8,613.1 L784.1,618.1 L805.9,636.5 L814.2,638.2 L815.9,639.8 L822.6,639.8 L825.9,643.2 L830.9,653.2 L830.9,656.6 L839.3,671.6 L876.1,688.3 L896.2,686.7 L901.2,691.7 L907.9,705.1 L921.3,700.0 L926.3,700.0 L946.3,713.4 L953.0,698.4 L961.4,698.4 L963.1,700.0 L971.4,701.7 L976.4,705.1 L978.1,708.4 L978.1,715.1 L991.5,720.1 L1003.2,721.8 L1013.2,733.5 L1028.3,720.1 L1038.3,720.1 L1045.0,713.4 L1056.7,706.7 L1065.1,705.1 L1073.4,710.1 L1076.8,710.1 L1078.5,706.7 L1078.5,693.3 L1080.1,691.7 L1080.1,688.3 L1083.5,681.6 L1090.2,676.6 L1103.6,676.6 L1128.6,686.7 L1130.3,685.0 L1138.7,683.3 L1143.7,680.0 L1157.1,676.6 L1162.1,673.3 L1170.5,671.6 L1175.5,668.3 L1193.9,663.2 L1207.2,674.9 L1207.2,678.3 L1208.9,680.0 L1208.9,688.3 L1229.0,713.4 L1242.4,708.4 L1249.1,708.4 L1250.7,710.1 L1264.1,713.4 L1269.1,720.1 L1272.5,731.8 L1287.5,743.5 L1295.9,726.8 L1295.9,723.4 L1307.6,715.1 L1305.9,713.4 L1305.9,695.0 L1319.3,681.6 L1321.0,669.9 L1324.3,664.9 L1349.4,648.2 L1367.8,648.2 L1391.2,613.1 L1404.6,596.3 L1411.3,596.3 L1416.3,599.7 L1428.0,603.0 L1446.4,577.9 L1469.8,574.6 L1469.8,564.6 L1473.2,561.2 L1481.5,557.9 L1481.5,554.5 L1486.6,542.8 L1486.6,537.8 L1493.2,521.1 L1493.2,516.1 L1479.9,499.3 L1479.9,494.3 L1484.9,489.3 L1491.6,489.3 L1511.6,509.4 L1513.3,484.3 L1518.3,474.3 L1518.3,465.9 L1516.7,462.5 L1515.0,462.5 L1504.9,470.9 L1498.3,470.9 L1493.2,464.2 L1483.2,469.2 L1476.5,469.2 L1453.1,457.5 L1444.7,450.8 L1443.1,430.8 L1424.7,427.4 L1411.3,417.4 L1384.5,417.4 L1382.9,415.7 L1372.8,414.0 L1366.1,410.7 L1361.1,410.7 L1354.4,407.4 L1329.3,407.4 L1326.0,400.7 L1326.0,395.6 L1322.6,389.0 L1321.0,378.9 L1252.4,307.0 L1244.0,303.7 L1240.7,300.3 L1229.0,295.3 L1225.6,292.0 L1213.9,286.9 L1207.2,281.9 L1168.8,283.6 L1152.1,270.2 L1145.4,266.9 L1120.3,268.5 L1105.2,288.6 L1096.9,288.6 L1095.2,297.0 L1091.8,302.0 L1091.8,305.3 L1081.8,327.1 L1083.5,328.7 L1083.5,347.1 L1081.8,348.8 L1081.8,358.9 L1086.8,368.9 L1095.2,378.9 L1098.5,387.3 L1103.6,394.0 L1103.6,410.7 L1101.9,414.0 L1085.2,429.1 L1078.5,429.1 L1076.8,427.4 L1076.8,420.7 L1085.2,409.0 L1085.2,402.3 L1076.8,389.0 L1076.8,385.6 L1068.4,370.6 L1068.4,367.2 L1060.1,352.2 L1060.1,340.5 L1058.4,338.8 L1058.4,312.0 L1060.1,310.3 L1060.1,298.6 L1061.7,297.0 L1063.4,288.6 L1068.4,280.2 L1068.4,276.9 L1076.8,260.2 L1095.2,240.1 L1098.5,231.7 L1098.5,226.7 L1091.8,216.7 L1091.8,213.3 L1088.5,208.3 L1085.2,196.6 L1080.1,188.3 L1080.1,184.9 L1073.4,173.2 L1073.4,169.9 L1068.4,159.8 L1053.4,139.8 L1043.3,139.8 L1038.3,143.1 L1011.6,168.2 L998.2,168.2 L989.8,174.9 L976.4,174.9 L951.4,196.6 L904.5,196.6 L891.1,206.7 L887.8,206.7 L877.8,211.7 L864.4,215.0 L859.4,218.4 L841.0,223.4 L830.9,228.4 L822.6,228.4 L817.6,223.4 L807.5,201.6 L792.5,194.9 L789.1,191.6 L789.1,188.3 L784.1,178.2 L767.4,178.2 L757.4,158.2 L745.6,158.2 L744.0,156.5 L732.3,156.5 L730.6,154.8 L717.2,154.8 L715.5,153.1 L712.2,153.1 L705.5,148.1 L693.8,143.1 L690.5,139.8 L662.0,124.7 L658.7,121.4 L658.7,114.7 L665.4,104.6 L657.0,82.9 L657.0,77.9 L655.3,76.2 L653.7,67.8 L631.9,56.1 L606.8,56.1 L605.2,54.5 L601.8,54.5 L565.0,71.2 L536.6,126.4 L533.2,129.7 L519.9,133.1 L519.9,144.8 L499.8,163.2 L494.8,166.5 L491.4,166.5 L484.7,169.9 L471.4,169.9 L469.7,168.2 L456.3,166.5 L456.3,168.2 L437.9,188.3 L437.9,210.0 L436.2,211.7 L436.2,215.0 L406.1,240.1 L381.0,250.1 L376.0,250.1 L359.3,256.8 L354.3,256.8 L352.6,258.5 L349.3,258.5 L342.6,261.8 L337.6,261.8 L320.8,268.5 L315.8,268.5 L299.1,275.2 L294.1,275.2 L277.4,281.9 L272.3,281.9 L255.6,288.6 L250.6,288.6 L248.9,290.3 L245.6,290.3 L238.9,293.6 L233.9,293.6 L217.1,300.3 L212.1,300.3 L195.4,307.0 L190.4,307.0 L173.7,313.7 L168.6,313.7 L158.6,323.7 L145.2,330.4 L128.5,347.1 L113.4,373.9 L110.1,390.6 L108.4,392.3 L106.8,410.7 L105.1,412.4 L105.1,422.4 L103.4,424.1 L103.4,440.8 L101.7,442.5 L101.7,469.2 L100.1,470.9 L100.1,479.3 L101.7,480.9 L101.7,484.3 L100.1,486.0 L100.1,492.6 L88.4,524.4 L88.4,529.4 L86.7,531.1 L86.7,536.1 L83.3,544.5 L83.3,552.9 L81.7,554.5 L81.7,567.9 L80.0,569.6 L81.7,596.3 L85.0,603.0 L85.0,608.0 L88.4,614.7 L90.0,628.1 L91.7,629.8 L91.7,634.8 L95.1,643.2 L95.1,656.6 L93.4,658.2 L93.4,663.2 L91.7,664.9 L90.0,673.3 L86.7,678.3 Z" fill="#fff" fill-rule="evenodd"/></svg>