<?xml version="1.0" encoding="utf-8"?>
<!DOCTYPE svg PUBLIC "-//W3C//DTD SVG 1.0//EN" "http://www.w3.org/TR/2001/REC-SVG-20010904/DTD/svg10.dtd">
<svg version="1.0" xmlns="http://www.w3.org/2000/svg" width="5000px" height="5000px" viewBox="0 0 5000 5000" preserveAspectRatio="xMidYMid meet">
 
 <g fill="#CDAE74">
  <path d="M4087 4332 c-49.40 -1.80 -76 -4.20 -103 -8.80 -46.60 -8.20 -69 -13.20 -92 -20.20 -6 -1.80 -14 -3.80 -17.60 -4.40 -3.60 -0.60 -7 -1.80 -7.60 -2.80 -0.60 -1 -2.80 -1.80 -4.80 -1.80 -2.20 0 -6.80 -1.20 -10.40 -2.80 -3.60 -1.40 -10.20 -3.80 -14.60 -5 -4.40 -1.40 -11.60 -3.80 -16 -5.60 -4.40 -1.60 -9.80 -3.80 -12 -4.60 -17.60 -6.60 -28 -10.80 -38 -15.20 -11.40 -4.80 -60 -28.80 -70 -34.60 -5.60 -3 -15 -8.20 -21 -11.40 -6 -3.20 -23 -13.80 -37.80 -23.80 -14.60 -9.80 -28.20 -18.80 -30 -20 -1.80 -1 -14.60 -11 -28.20 -21.80 -28.60 -22.80 -82 -75.20 -105.40 -103.20 -45.40 -54.80 -85.40 -121.80 -120.80 -203 -6.80 -15.60 -27.80 -78.20 -27.80 -83 0 -2 -0.80 -4.40 -2 -5 -1 -0.60 -2 -3 -2 -5.40 0 -2.20 -1.40 -8.60 -3.20 -14.40 -5.80 -18.60 -6.80 -22.40 -6.80 -27.80 0 -2.80 -1 -7.60 -2.20 -10.80 -3.20 -8.60 -9.80 -55.60 -15.80 -111.60 -1.40 -13.80 -2 -389.60 -2 -1201.20 0 -1075.40 -0.20 -1181.40 -3.20 -1182.60 -1.80 -0.60 -420 -1.20 -929.40 -1.20 -637.20 0 -928.80 -0.60 -934.40 -2.20 -44.80 -11.60 -65.20 -58.60 -45.40 -103.60 4.20 -9.60 19.60 -24.40 31.40 -30.20 l10 -5 935 -1 935 -1 0.40 -372 c0.40 -269.20 1.20 -373.40 2.80 -377 7 -15.80 9.80 -20 18.80 -29.20 13.60 -13.60 28.60 -19.60 49 -19.60 36 0 65 25 69.20 59.80 0.80 6.60 1.40 173.80 1.20 371.80 -0.20 240 0.40 360.80 1.80 363.40 1.80 3.80 13.20 3.80 510 3.80 497.60 0 508.20 0 515.60 3.80 4 2.20 8.80 5.40 10.40 7.40 2.40 3 2.80 219 2.80 1616.60 0 1569 -0.20 1613.40 -3.80 1620.20 -4.80 9.20 -17.20 22 -21.20 22 -1.80 0 -4 0.80 -5.20 2 -2.60 2.60 -297.40 4.20 -359.80 2z m247 -142 c4 -4 4 -6.60 4 -1493.60 0 -1192 -0.60 -1490.40 -2.60 -1493 -2.20 -3.20 -29.20 -3.40 -448.40 -3.40 -253.60 0 -446.60 0.80 -447.60 1.80 -3 3 -2.40 2361.40 0.60 2383.20 1.20 10 3 25.20 4 34 0.80 8.80 3.20 23.20 5 32 1.80 8.80 4.20 20 5 25 2.60 13.40 5 24.20 7.60 32 1.20 3.80 3.20 11 4.40 16 1.40 5 3.60 12 5.20 15.60 1.60 3.60 2.80 8.20 2.80 10.40 0 2 1 4.40 2 5 1.20 0.60 2 2.60 2 4.40 0 1.60 1.20 5.80 2.80 9.20 1.60 3.60 4.20 10.20 6 14.80 14.40 38.40 46.60 96.80 76 137.60 32.80 45.60 90 103.60 129.20 130.80 3.80 2.80 8.20 6.20 9.60 7.60 1.60 1.40 5.20 4 8 5.40 3 1.60 7.20 4.60 9.20 7 2.20 2.40 4.80 4.20 6 4.20 1.20 0 4.60 2 7.40 4.60 2.80 2.40 6.80 5.40 8.80 6.60 2.20 1.20 9.40 5.20 16 8.80 6.60 3.60 15.20 8.40 19 10.60 8.60 5 30.40 15.60 41 20.40 12.40 5.40 19.60 8.40 25 10.60 2.80 1 8.20 3.40 12.40 5.20 4 1.80 8.40 3.20 10 3.20 1.60 0 3.60 0.80 4.60 1.60 1.20 1 7.40 3.40 14 5.40 6.60 2 13.80 4.20 16 5 11 4 33.40 10.20 49 13.80 5 1 13.60 3 19 4.40 24.80 6 70.60 11.60 112 13.80 21 1.20 39.40 2.40 41 2.80 1.60 0.40 49.60 0.80 106.60 1 100.80 0.20 103.40 0.20 107.40 -3.80z"/>
  <path d="M1500 4326 c-9.40 -1 -28.20 -2.80 -42 -4 -40.60 -3.80 -83.40 -9.40 -86.60 -11.40 -1 -0.60 -7.40 -2 -14.20 -2.80 -21.40 -2.80 -36.40 -5.60 -42 -7.80 -3 -1 -8.40 -2 -12.20 -2 -3.80 0 -7.40 -0.80 -8 -2 -0.60 -1 -4 -2 -7.40 -2 -3.40 0 -10.20 -1.40 -15.40 -3 -5 -1.40 -13.20 -3.80 -18.20 -5.20 -5 -1.20 -12.60 -3.40 -17 -4.80 -4.40 -1.40 -11.60 -3.40 -16 -4.60 -20.40 -5.60 -45.20 -13.20 -57 -17.60 -7.20 -2.60 -14.40 -4.80 -16.20 -4.80 -1.60 0 -3.80 -0.80 -5 -1.60 -1 -1 -6.20 -3.40 -11.80 -5.20 -9 -3.20 -14.80 -5.60 -28 -11.20 -2.20 -1 -13.40 -5.40 -24.80 -10 -11.40 -4.60 -22.20 -9 -24 -10 -20.20 -10 -46.20 -22 -48 -22 -1.20 0 -2.20 -0.80 -2.20 -2 0 -1 -1.60 -2 -3.60 -2 -2 0 -4.40 -0.80 -5.60 -1.80 -1 -1 -11.60 -7 -23.80 -13.40 -12 -6.20 -24.20 -13 -27 -14.80 -4.20 -3 -12.80 -7.80 -33 -18.80 -2.20 -1.20 -4.40 -2.60 -5 -3.40 -0.60 -0.60 -10.80 -7.20 -23 -14.80 -19.80 -12.20 -68.40 -46 -71 -49 -0.60 -0.80 -6.40 -5.20 -13 -10 -6.60 -4.80 -12.40 -9.20 -13 -9.80 -0.60 -0.80 -4.60 -3.80 -9 -7 -4.40 -3.20 -8.80 -6.80 -10 -8 -1 -1.20 -7 -6.20 -13 -11.20 -43 -34.80 -107.80 -99.40 -153.40 -153 -38.80 -45.80 -91.20 -120.20 -116.20 -165 -2.80 -5 -6.60 -11.60 -8.60 -15 -24.40 -41.80 -70.40 -139.20 -81.80 -173 -2 -6 -7.40 -21.40 -12 -34 -4.60 -12.60 -9 -25.60 -10 -29 -0.80 -3.20 -3.40 -11.40 -5.80 -18 -2.20 -6.60 -4.20 -13.60 -4.20 -15.60 0 -1.80 -0.80 -5 -1.80 -7 -3.20 -6.60 -8.20 -24 -8.20 -28.80 0 -2.80 -0.60 -5.60 -1.40 -6.40 -2 -2 -5.40 -15 -12.40 -47.80 -1.20 -5.40 -2.60 -10.40 -3.20 -11.40 -1 -1.60 -3.40 -14.60 -6.80 -38 -1 -6 -2.80 -16.80 -4.20 -24 -9.80 -54.20 -12.20 -76.80 -15.80 -143 -5 -94.60 0.60 -228.40 11.80 -278.60 1.20 -4.60 2 -11.40 2 -15 0 -3.60 1 -9.60 2 -13.40 1.20 -3.80 3 -12.40 4 -19 2.80 -18.40 5.20 -30.60 9 -46 1.80 -7.60 4 -17.20 5 -21 0.80 -3.80 3 -12.40 5 -19 1.80 -6.60 4.20 -15.60 5 -20 0.80 -4.40 3.40 -13.40 5.80 -20 2.20 -6.60 4.20 -13.80 4.20 -16.20 0 -2.20 0.80 -4.80 1.60 -6 0.80 -1 3.20 -7.20 5.20 -13.80 7.20 -23 13.40 -42 15.20 -46 1 -2.20 3.60 -9.80 6 -17 2.40 -7.20 6.20 -17.40 8.40 -23 2.20 -5.40 5 -12.20 6 -15 1.20 -2.80 3.20 -7.60 4.60 -11 1.40 -3.20 3.40 -8.20 4.40 -11 3.60 -8.60 44.20 -90.20 52.80 -106 12 -21.80 15.80 -28.60 17.80 -32 25.60 -41.40 33 -53.20 34.40 -53.60 0.80 -0.40 1.60 -1.60 1.60 -2.60 0 -2 39 -57.60 54.80 -77.80 38.20 -49.40 89 -104 146 -157 7.40 -7 49.20 -42.80 53.40 -46 3 -2.20 12.40 -9.60 21 -16.60 18.60 -15 18.60 -15 33.20 -26 6.40 -4.60 12.20 -8.40 13.20 -8.40 1 0 3.80 -2.20 6.40 -5 2.60 -2.80 5.40 -5 6.40 -5 0.80 0 7.80 -4.60 15.60 -10 7.80 -5.60 14.40 -10 15 -10 0.40 0 7.60 -4.60 15.80 -10 8.20 -5.60 15.80 -10 17 -10 1.20 0 2.20 -0.80 2.20 -1.80 0 -1 1.60 -2.20 3.60 -2.80 1.80 -0.60 8.40 -4 14.40 -7.60 6 -3.40 15.60 -8.80 21 -11.80 11.80 -6.40 75 -38.20 85 -42.60 3.80 -1.60 14 -6.20 22.60 -10.20 8.60 -4 17 -7.20 18.40 -7.20 1.60 0 3.20 -0.80 3.80 -1.80 0.60 -1 3.20 -2.20 5.60 -2.80 2.60 -0.40 15 -4.60 27.60 -9.20 24.20 -8.80 51 -17.80 66 -22.20 5 -1.40 11.80 -3.40 15 -4.40 12.80 -4 42.40 -12 51 -13.60 5 -1 13.80 -2.60 19.40 -3.80 5.80 -1 11.60 -2.60 12.80 -3.20 2.20 -1.40 15 -3.80 59.80 -10.80 8.20 -1.40 20 -3.20 26.20 -4.40 6 -1 15.40 -1.80 21 -1.80 5.40 0 18.80 -1.40 29.80 -3 24.20 -3.60 177.60 -4.20 200 -0.80 7.80 1.20 23.40 3 35 4 29 2.60 44.80 4.60 60 7.60 7.20 1.40 18 3.40 24 4.40 6 1 15 3 20 4.20 5 1.20 12.60 2.80 17 3.80 9.40 1.80 19.40 4.40 36 8.80 6.60 1.80 15.20 4 19 5 3.80 1 12 3.20 18 5.20 6 1.80 13.80 3.80 17 4.20 3.40 0.60 7 1.80 8 2.60 1.20 1 5.40 2.20 9.60 3 4 0.80 8 2.20 8.60 3.20 0.60 1 2.60 1.80 4.40 1.80 3.20 0 24.20 7.40 37.40 13 3.40 1.40 9.60 3.80 14 5.20 4.40 1.40 8.80 3.40 10 4.20 1 0.80 3 1.60 4.20 1.60 5 0 99.20 45.40 100.40 48.60 0.40 0.80 1.80 1.40 3.20 1.40 1.40 0 14 6.80 28.40 15.20 14.20 8.40 27.60 16.40 29.80 17.60 2.20 1.20 6.80 4.20 10.40 6.80 3.40 2.40 6.80 4.40 7.40 4.40 0.60 0 10.40 6.60 21.60 14.60 11.40 8 22.80 16 25.60 17.80 11.60 7.80 40 29.40 49.20 37 5.40 4.60 14 11.80 19 16 53.40 44.20 121.60 114.80 163.60 169.60 5 6.60 10.60 13.80 12.60 15.80 2 2.20 3.60 4.60 3.60 5.40 0 0.80 1.20 2.80 2.60 4.20 1.60 1.40 5.20 6.80 8.40 11.60 3 5 6.20 9.40 6.80 10 4.80 4 62.20 94.60 62.20 98.20 0 1 2 5.20 4.60 9.40 4.80 7.40 33.20 64.80 41.40 83.40 2.40 5.60 6.60 15 9.40 21 2.80 6 6 13.20 7 16 1.20 2.80 3.20 7.80 4.60 11 1.60 3.40 4.20 10 5.80 15 5.80 17 8.40 24 9.80 25.20 0.80 0.80 1.40 3.40 1.40 5.80 0 2.20 0.80 5 1.60 6.20 0.80 1 3.20 7.20 5.20 13.80 2.20 6.60 6 18.40 8.60 26.20 2.40 7.80 4.60 15.60 4.60 17.40 0 2 0.80 5 1.80 7 1.20 1.80 3.40 8.80 5.20 15.40 1.80 6.60 4 14.80 4.80 18 1 3.40 3.20 12.80 5.20 21 4.60 20.40 6.20 26.80 9.80 41.40 1.80 7 3.20 15 3.20 18 0 2.80 0.80 8 1.80 11.40 3.60 11.60 10 53 15.20 97.20 4.40 38.60 4.80 45.40 6.20 101.80 1.40 55.40 0.40 62.40 -9 72.80 -2.80 3.20 -7.80 7.20 -11.20 9 -5.60 3.20 -85.20 3.40 -1105.40 4 l-1099.40 0.40 -2.40 4.40 c-2.80 5.20 -1 96.80 2.40 126.80 1.20 9.80 2.80 26.80 3.80 37.80 2.20 23.40 6.20 51.80 13.60 94 1 5.60 2.80 13.60 3.80 18 1.20 4.40 3.20 13 4.60 19 1.20 6 3.60 16.40 5.20 23 1.80 6.60 4 15.20 4.80 19 3.40 12.80 12.60 42.80 19.40 63 3.80 11 8.20 24.60 10 30 3.20 10.60 7.60 21.40 15.40 39.40 1.80 4 3.20 7.80 3.20 8.40 0 1.20 2 6 11 26.20 1.40 3.40 4.20 9.60 6 14 5.60 13.20 22.60 47.20 29.20 59 3.40 6 8.80 15.60 12 21.20 3 5.80 11 19 17.80 29.60 6.60 10.80 12 19.80 12 20.40 0 0.60 2.20 4 4.80 7.40 2.80 3.60 6.20 8.60 7.60 11.40 3.60 6.60 18 28.80 19.40 30 0.60 0.60 2.20 2.40 3.20 4.20 5 7.80 51.40 66.80 66 83.80 34.20 39.80 91 95.20 123.60 120.60 5.80 4.40 10.80 8.80 11.40 9.40 1.60 2 34.40 28 48.40 38.20 16.40 12.20 72.80 49.60 82.60 55 2.20 1 8.60 4.60 14 7.80 27.80 15.80 43.80 24.40 61 33 37.20 18.60 68.20 32.40 95 42.40 30.40 11.40 48 17.80 52 19 2.20 0.40 5.80 1.60 8 2.40 13.80 5.40 27.40 9.60 37 11.40 2.80 0.60 6.80 1.80 9 2.80 7.80 3.40 55.20 15.60 77 19.80 6 1.20 15 3.20 20 4.40 5 1 15.40 2.80 23 4 7.80 1 23 3.20 34 4.80 38 5.60 78.40 7.80 147 7.80 70.60 0.20 112.80 -2.20 150 -8 36.20 -5.60 40.60 -6.20 57 -9.60 30.80 -6.20 50.80 -11.20 82 -20.40 5.60 -1.60 13.20 -3.80 17 -4.80 15.60 -3.80 24.20 -6.60 39 -12 2.20 -1 8.60 -3 14 -5 5.60 -1.80 11.80 -4 14 -5 2.20 -0.80 8 -3 13 -5 5 -2 11.20 -4.40 14 -5.60 2.80 -1 6.80 -2.60 9 -3.60 2.20 -0.80 10.20 -4.40 17.60 -7.60 7.60 -3.40 14.20 -6.20 14.60 -6.20 4.80 0 91.40 -44 121.40 -61.60 28 -16.60 105.60 -69.20 109.40 -74 0.60 -0.80 8.60 -7.20 18 -14.20 50 -38 154 -140.20 184.80 -181.40 44.40 -59.80 64.80 -82.80 73.20 -82.80 1.80 0 4.20 -1 5.60 -2.40 2.80 -2.80 30.80 -3 37 -0.20 2.40 1.20 8 3.80 12.40 5.80 22 9.60 38.60 28.20 44.20 49.40 3.40 12.60 0.60 30.20 -6.20 41.40 -2.40 3.80 -4.80 8.40 -5.40 10 -1.80 5 -46.20 63.40 -64.40 85 -35 41.20 -94.60 103.20 -123.20 127.80 -5 4.40 -15.80 13.80 -24 21.20 -16.60 15 -36.20 31.40 -50 42 -5 3.80 -9.40 7.40 -10 8 -2.60 3 -58.20 42 -59.80 42 -1 0 -2.20 0.80 -2.60 1.80 -0.20 0.80 -10.40 7.80 -22.60 15.40 -12 7.40 -22.20 14.40 -22.60 15.20 -0.40 0.80 -1.60 1.60 -2.60 1.60 -1 0 -6.40 3 -12.20 6.80 -12 7.60 -30.20 17.80 -44 24.80 -5.40 2.60 -10 5.60 -10.80 6.60 -0.60 1 -2.40 1.80 -4 1.80 -1.60 0 -6.40 2.20 -10.80 5 -4.40 2.80 -9.20 5 -11 5 -1.60 0 -3 1 -3 2 0 1.20 -1.60 2 -3.80 2 -2 0 -4.80 1.40 -6.20 3 -1.40 1.60 -3.40 3 -4.60 3 -1.20 0 -10.20 4 -20.20 8.80 -22.20 10.80 -41 19.20 -62.20 28 -4.40 1.80 -9.60 4.20 -11.40 5.20 -2 1.20 -5 2 -6.60 2 -1.60 0 -4.60 0.80 -6.60 1.80 -8.80 4.40 -18.80 8.20 -22 8.20 -2 0 -4.40 0.80 -5.60 1.80 -1 0.80 -6.80 3.20 -12.80 5.20 -6 2 -12.80 4.20 -15 5 -3.80 1.40 -19.40 6 -35 10.60 -3.80 1 -10.40 3.20 -14.60 4.60 -4 1.60 -9.20 2.80 -11.40 2.80 -2.20 0 -5.60 0.80 -7.60 1.80 -5.60 2.80 -29.80 8.80 -48.40 11.80 -5 0.80 -10.20 2.20 -11.60 3.20 -2.60 1.60 -15 4 -37.40 7 -6.60 1 -13.40 2.20 -15 3 -5.40 2 -46.80 7.20 -96 12.20 -37.60 3.80 -145.60 5.60 -172 3z m1026.60 -1458.80 c4 -2 4.60 -14.40 1.40 -34 -1 -6.60 -3 -19.80 -4.20 -29.20 -4.80 -35 -5.60 -41.20 -7.40 -52 -2.40 -14.40 -7.40 -36.80 -12.40 -56 -1.20 -5 -2.80 -11.60 -3.20 -15 -0.60 -3.20 -1.80 -7.80 -2.60 -10 -2.40 -5.80 -6.40 -20.80 -7.60 -28.60 -0.60 -3.60 -1.80 -7 -2.80 -7.60 -1 -0.60 -1.80 -2.80 -1.80 -5 0 -4.20 -14.80 -50.40 -18 -56.20 -1.20 -2 -2 -5 -2 -6.60 0 -1.60 -0.80 -4.60 -1.80 -6.60 -3 -6.20 -7.60 -17.20 -13.20 -31.40 -12.40 -31.80 -27.60 -64.20 -47 -100 -11.40 -21 -13.40 -24.60 -18.40 -33 -2.40 -3.80 -5.20 -8.80 -6.40 -11 -2.40 -4.20 -4.20 -7 -19 -30 -14.40 -22.40 -36 -52.80 -49.20 -69 -6.60 -8.20 -14.60 -18.60 -18 -23 -3.20 -4.40 -6.80 -9 -8 -10.20 -1 -1.20 -7.40 -8.40 -14 -16 -14 -16 -59.40 -62 -74 -75 -16.80 -14.80 -34 -29.40 -40.20 -34.20 -3.20 -2.40 -7 -5.60 -8.40 -7 -4.60 -4.40 -24.80 -19.60 -43.40 -32.60 -19.20 -13.40 -80.20 -52 -82.20 -52 -0.60 0 -3.80 -1.80 -6.80 -4 -8.40 -6 -62 -33 -79.80 -40.40 -8.40 -3.40 -16 -7 -17 -7.80 -1.20 -1 -3.60 -1.80 -5.60 -1.80 -2 0 -5.20 -0.80 -7.20 -1.80 -8.60 -4.80 -17.20 -8.20 -20.40 -8.20 -1.80 0 -4 -0.80 -5.20 -1.80 -1 -0.80 -6.80 -3.20 -12.80 -5.20 -6 -1.80 -12.40 -4.20 -14 -5 -1.80 -0.80 -6 -2.20 -9.60 -2.80 -3.40 -0.80 -6.80 -2.40 -7.40 -3.40 -0.80 -1 -3.80 -1.80 -7 -1.80 -3.20 0 -6.40 -0.80 -7 -2 -0.60 -1 -3.60 -2 -6.60 -2 -3 0 -7.20 -1.40 -9.20 -3 -2.20 -1.60 -6 -3 -8.40 -3 -2.60 0 -6.60 -0.80 -9.20 -1.80 -8.20 -3 -26.20 -7.80 -38.60 -10.20 -6.60 -1.20 -15.60 -3.20 -20 -4.40 -4.40 -1.40 -13 -3 -19 -3.80 -6 -0.80 -18 -2.40 -26.60 -3.60 -8.40 -1 -16.40 -2.60 -17.40 -3.20 -3 -1.80 -39.40 -4.60 -93.40 -7.20 -74 -3.60 -176.60 2.20 -222.20 12.20 -4.60 1.20 -11 2 -14.20 2 -3.40 0 -8.40 1 -11.60 2.20 -3 1.20 -10.60 3 -16.60 4 -21.20 3.80 -29 5.40 -35 7.40 -3.20 1.20 -10 3.20 -15 4.40 -5 1.20 -11.60 3.20 -15 4.40 -3.20 1.20 -9 2.60 -12.60 3 -3.60 0.60 -7 1.80 -7.60 2.80 -0.60 1 -3.20 1.80 -5.60 1.80 -2.60 0 -7.40 1.40 -10.40 3 -3.20 1.60 -7.40 3 -9.20 3 -1.80 0 -4 1 -4.60 2 -0.60 1.20 -3 2 -5 2 -2.20 0 -7.20 1.40 -11.40 3.20 -7.80 3.40 -9.40 4 -24.60 9.40 -19 6.60 -23.20 8.20 -30 11 -30.20 12.60 -104.60 50 -114.20 57.60 -1.60 1.20 -8 4.80 -14.20 8 -6.40 3.20 -11.60 6.40 -11.60 7.40 0 0.80 -1 1.40 -2.20 1.40 -1.20 0 -5 2.20 -8.60 5 -3.60 2.80 -7.20 5 -8 5 -0.60 0 -7.40 4.60 -15 10 -7.60 5.60 -14.60 10 -15.80 10 -1 0 -3.20 1.40 -4.60 3.20 -1.60 1.80 -6.20 5.60 -10.60 8.40 -4.40 2.60 -9.80 6.60 -12 8.60 -2.20 2.20 -4.60 3.80 -5.40 3.80 -0.80 0 -2.80 1.20 -4.20 2.60 -1.40 1.40 -6.20 5.40 -10.80 8.60 -4.60 3.20 -12.60 9.60 -18 14.20 -5.40 4.60 -16 13.40 -23.80 19.80 -43.20 36 -98.60 92.60 -142.80 146 -14 16.60 -47.40 62.40 -63 85.80 -15.20 22.80 -33.40 51.80 -35.80 57 -0.80 1.60 -3.40 6.20 -5.80 10 -12.60 20.60 -42 79.20 -54.60 109 -2.20 5.20 -4.40 10.80 -11 28 -3.80 9.60 -8.40 20.20 -10 23.40 -1.20 2 -2 5 -2 6.60 0 1.60 -0.80 4.60 -1.80 6.60 -4.60 9.20 -8.20 19 -8.20 22.40 0 2 -0.80 4.20 -1.80 4.80 -1 0.80 -2.40 4.80 -3.20 9.20 -0.80 4.40 -2.20 8.40 -3.20 9.20 -1 0.60 -1.80 3.20 -1.80 6 0 2.60 -0.80 6.40 -1.80 8.40 -3 6.20 -8.20 23.80 -8.20 28 0 2.40 -0.80 4.80 -2 5.40 -1 0.60 -2 3.20 -2 5.40 0 2.40 -1.40 9.20 -3.20 15.40 -6.40 22.80 -12.60 51.20 -16.60 78.20 -1 6 -2.80 16.80 -4 23.60 -4 21.80 -7.80 20.20 52.40 20.80 133.60 1.60 2008.80 0.40 2012 -1.20z"/>
 </g>
</svg>